<svg width="478" height="945" viewBox="0 0 478 945" fill="none" xmlns="http://www.w3.org/2000/svg">
<path d="M0 227.3C0 225.643 1.34315 224.3 3 224.3H6.81235V248.489H3C1.34315 248.489 0 247.146 0 245.489V227.3Z" fill="#37424D"/>
<path d="M0 372.435C0 370.778 1.34315 369.435 3 369.435H6.81235V448.599H3C1.34315 448.599 0 447.256 0 445.599V372.435Z" fill="#37424D"/>
<path d="M478 311.962C478 310.305 476.657 308.962 475 308.962H471.188V438.704H475C476.657 438.704 478 437.361 478 435.704V311.962Z" fill="#37424D"/>
<path d="M0 277.877C0 276.22 1.34315 274.877 3 274.877H6.81235V354.042H3C1.34315 354.042 0 352.698 0 351.042V277.877Z" fill="#37424D"/>
<path d="M7.05908 65C7.05908 29.1015 36.1606 0 72.0591 0H405.941C441.839 0 470.941 29.1015 470.941 65V880C470.941 915.898 441.839 945 405.941 945H239H72.0591C36.1606 945 7.05908 915.898 7.05908 880V65Z" fill="url(#paint0_linear_17_69)"/>
<rect x="10.2186" y="6.59705" width="457.563" height="923.587" rx="50" fill="#232020"/>
<path d="M26.114 63.9901C26.114 40.7941 44.918 21.9901 68.114 21.9901H409.886C433.082 21.9901 451.886 40.7942 451.886 63.9901V872.791C451.886 895.987 433.082 914.791 409.886 914.791H68.114C44.9181 914.791 26.114 895.987 26.114 872.791V63.9901Z" fill="white"/>
<rect opacity="0.15" x="3.40619" y="130.841" width="6.81235" height="16.4926" fill="#A7A7A7"/>
<rect opacity="0.15" x="3.40619" y="785.049" width="6.81235" height="16.4926" fill="#A7A7A7"/>
<rect opacity="0.15" x="467.781" y="130.841" width="6.81235" height="16.4926" fill="#A7A7A7"/>
<rect opacity="0.3" x="467.781" y="785.049" width="6.81235" height="16.4926" fill="#A7A7A7"/>
<rect opacity="0.15" x="358.784" y="6.59705" width="6.59705" height="17.0309" transform="rotate(-90 358.784 6.59705)" fill="#A7A7A7"/>
<rect opacity="0.15" x="108.998" y="936.781" width="6.59705" height="17.0309" transform="rotate(-90 108.998 936.781)" fill="#A7A7A7"/>
<rect x="207.777" y="10.9951" width="62.4466" height="8.79606" rx="4.39803" fill="#0F0E0E"/>
<defs>
<linearGradient id="paint0_linear_17_69" x1="239" y1="0" x2="239" y2="936.781" gradientUnits="userSpaceOnUse">
<stop stop-color="#343D47"/>
<stop offset="1" stop-color="#4E6277"/>
</linearGradient>
</defs>
</svg>
